name E:\3-PhD\Data\MocapData\ElaboratedData\015\pre\dynamicElaborations\RunL1\RunL1.mot
datacolumns 37
datarows 5
range 1.4285 1.4305
endheader

time	    ground_force1_vx	    ground_force1_vy	    ground_force1_vz	    ground_force1_px	    ground_force1_py	    ground_force1_pz	    ground_force2_vx	    ground_force2_vy	    ground_force2_vz	    ground_force2_px	    ground_force2_py	    ground_force2_pz	    ground_force3_vx	    ground_force3_vy	    ground_force3_vz	    ground_force3_px	    ground_force3_py	    ground_force3_pz	    ground_force4_vx	    ground_force4_vy	    ground_force4_vz	    ground_force4_px	    ground_force4_py	    ground_force4_pz	    ground_torque1_x	    ground_torque1_y	    ground_torque1_z	    ground_torque2_x	    ground_torque2_y	    ground_torque2_z	    ground_torque3_x	    ground_torque3_y	    ground_torque3_z	    ground_torque4_x	    ground_torque4_y	    ground_torque4_z	
1.4285	        -41.96076522	        266.02807415	        -10.30272581	         -1.84409581	          0.00000000	          0.14629644	       -104.52058847	       1496.44126656	        133.47127686	         -1.72476534	          0.00000000	          0.11750595	          0.00000000	          0.00000000	          0.00000000	          0.00000000	          0.00000000	          0.00000000	          0.00000000	          0.00000000	          0.00000000	          0.00000000	          0.00000000	          0.00000000	         -0.00000000	         -0.64002337	          0.00000000	         -0.00000000	         -1.68603818	          0.00000000	          0.00000000	          0.00000000	          0.00000000	          0.00000000	          0.00000000	          0.00000000	
1.429	        -41.48199310	        258.17977801	         -9.92518866	         -1.84371358	          0.00000000	          0.14615088	       -103.54733473	       1506.79603196	        135.23666424	         -1.72463975	          0.00000000	          0.11744958	          0.00000000	          0.00000000	          0.00000000	          0.00000000	          0.00000000	          0.00000000	          0.00000000	          0.00000000	          0.00000000	          0.00000000	          0.00000000	          0.00000000	         -0.00000000	         -0.64926937	          0.00000000	         -0.00000000	         -1.67043831	          0.00000000	          0.00000000	          0.00000000	          0.00000000	          0.00000000	          0.00000000	          0.00000000	
1.4295	        -40.98887108	        250.44521405	         -9.54061821	         -1.84332408	          0.00000000	          0.14599802	       -102.50962616	       1517.00269769	        136.98346600	         -1.72451447	          0.00000000	          0.11739306	          0.00000000	          0.00000000	          0.00000000	          0.00000000	          0.00000000	          0.00000000	          0.00000000	          0.00000000	          0.00000000	          0.00000000	          0.00000000	          0.00000000	         -0.00000000	         -0.65790049	          0.00000000	         -0.00000000	         -1.65450696	          0.00000000	          0.00000000	          0.00000000	          0.00000000	          0.00000000	          0.00000000	          0.00000000	
1.43	        -40.48191426	        242.82621477	         -9.15024138	         -1.84292705	          0.00000000	          0.14583770	       -101.40763409	       1527.05924188	        138.71026038	         -1.72438944	          0.00000000	          0.11733648	          0.00000000	          0.00000000	          0.00000000	          0.00000000	          0.00000000	          0.00000000	          0.00000000	          0.00000000	          0.00000000	          0.00000000	          0.00000000	          0.00000000	         -0.00000000	         -0.66591512	          0.00000000	         -0.00000000	         -1.63831539	          0.00000000	          0.00000000	          0.00000000	          0.00000000	          0.00000000	          0.00000000	          0.00000000	
1.4305	        -39.96165206	        235.32443415	         -8.75524116	         -1.84252216	          0.00000000	          0.14566974	       -100.24156398	       1536.96369765	        140.41567185	         -1.72426460	          0.00000000	          0.11727990	          0.00000000	          0.00000000	          0.00000000	          0.00000000	          0.00000000	          0.00000000	          0.00000000	          0.00000000	          0.00000000	          0.00000000	          0.00000000	          0.00000000	         -0.00000000	         -0.67331189	          0.00000000	         -0.00000000	         -1.62193637	          0.00000000	          0.00000000	          0.00000000	          0.00000000	          0.00000000	          0.00000000	          0.00000000	
